<svg xmlns="http://www.w3.org/2000/svg" version="1.1" xmlns:xlink="http://www.w3.org/1999/xlink" xmlns:svgjs="http://svgjs.dev/svgjs" width="1000" height="1000" viewBox="0 0 1000 1000"><rect width="1000" height="1000" fill="#000000"></rect><g transform="matrix(0.7,0,0,0.7,149.57575757575756,282.1265587044535)"><svg viewBox="0 0 396 247" data-background-color="#fde37e" preserveAspectRatio="xMidYMid meet" height="623" width="1000" xmlns="http://www.w3.org/2000/svg" xmlns:xlink="http://www.w3.org/1999/xlink"><g id="tight-bounds" transform="matrix(1,0,0,1,0.2400000000000091,-0.09999999999999432)"><svg viewBox="0 0 395.52 247.2" height="247.2" width="395.52"><g><svg></svg></g><g><svg viewBox="0 0 395.52 247.2" height="247.2" width="395.52"><g transform="matrix(1,0,0,1,75.54432,99.10815863364645)"><svg viewBox="0 0 244.43135999999998 48.98368273270709" height="48.98368273270709" width="244.43135999999998"><g><svg viewBox="0 0 244.43135999999998 48.98368273270709" height="48.98368273270709" width="244.43135999999998"><g><svg viewBox="0 0 244.43135999999998 48.98368273270709" height="48.98368273270709" width="244.43135999999998"><g><svg viewBox="0 0 244.43135999999998 48.98368273270709" height="48.98368273270709" width="244.43135999999998"><g id="textblocktransform"><svg viewBox="0 0 244.43135999999998 48.98368273270709" height="48.98368273270709" width="244.43135999999998" id="textblock"><g><svg viewBox="0 0 244.43135999999998 48.98368273270709" height="48.98368273270709" width="244.43135999999998"><g transform="matrix(1,0,0,1,0,0)"><svg width="244.43135999999998" viewBox="1.1700000762939453 -33.939998626708984 171.52000427246094 34.37999725341797" height="48.98368273270709" data-palette-color="#001f3f"><path d="M8.35-32.03L8.35-32.03Q9.33-32.03 15.19-32.32L15.19-32.32Q15.33-31.88 15.33-31.45L15.33-31.45Q15.33-30.52 15.14-30.52L15.14-30.52Q14.7-30.52 13.38-30.1 12.06-29.69 11.96-29.35L11.96-29.35Q11.62-28.03 11.62-25.2L11.62-25.2 11.62-13.62Q11.62-9.13 13.65-6.4 15.67-3.66 19.14-3.66L19.14-3.66Q22.75-3.66 25.07-6.03 27.39-8.4 27.39-13.96L27.39-13.96 27.39-25.59Q27.39-28.37 26.76-29.1L26.76-29.1Q26.32-29.64 24.93-30.08 23.54-30.52 22.95-30.52L22.95-30.52Q22.75-30.52 22.71-31.32 22.66-32.13 22.8-32.32L22.8-32.32Q27.29-31.93 29.25-31.93L29.25-31.93Q30.47-31.93 32.59-32.1 34.72-32.28 35.3-32.32L35.3-32.32Q35.5-31.93 35.5-31.45L35.5-31.45Q35.5-30.52 35.25-30.52L35.25-30.52Q32.57-30.52 31.2-28.91L31.2-28.91Q30.52-28.08 30.52-25.34L30.52-25.34 30.52-14.21Q30.52-7.08 27.03-3.42 23.54 0.24 17.97 0.24L17.97 0.24Q12.01 0.24 8.4-3.47 4.79-7.18 4.79-15.19L4.79-15.19 4.79-25.49Q4.79-28.61 4.39-29.3L4.39-29.3Q4.15-29.69 3.03-30.1 1.9-30.52 1.37-30.52L1.37-30.52Q1.17-30.52 1.17-31.35L1.17-31.35Q1.17-32.23 1.27-32.32L1.27-32.32Q8.01-32.03 8.35-32.03ZM55.66-21.78L55.66-21.78Q59.18-21.78 60.84-18.41L60.84-18.41Q63.86-21.73 69.63-21.78L69.63-21.78Q72.46-21.78 74.24-19.38 76.02-16.99 76.02-12.11L76.02-12.11 76.02-7.28Q76.02-4.15 76.36-2.83L76.36-2.83Q76.46-2.49 77.68-2.05 78.9-1.61 79.34-1.61L79.34-1.61Q79.49-1.61 79.51-0.81 79.54 0 79.44 0.2L79.44 0.2Q78.9 0.15 76.44-0.02 73.97-0.2 72.85-0.2L72.85-0.2Q71.68-0.2 69.26-0.02 66.84 0.15 66.26 0.2L66.26 0.2Q66.06 0 66.06-0.81 66.06-1.61 66.26-1.61L66.26-1.61Q66.79-1.61 68.02-2.05 69.24-2.49 69.33-2.83L69.33-2.83Q69.68-4.3 69.68-6.54L69.68-6.54 69.68-10.94Q69.68-14.31 68.67-15.97 67.67-17.63 65.48-17.63L65.48-17.63Q62.74-17.63 62.06-15.77L62.06-15.77Q61.91-15.38 61.96-14.75L61.96-14.75Q62.06-13.87 62.06-12.11L62.06-12.11 62.06-7.28Q62.06-4.15 62.4-2.83L62.4-2.83Q62.5-2.49 63.72-2.05 64.94-1.61 65.38-1.61L65.38-1.61Q65.52-1.61 65.55-0.81 65.57 0 65.48 0.2L65.48 0.2Q64.94 0.15 62.47-0.02 60.01-0.2 58.88-0.2L58.88-0.2Q57.71-0.2 55.3-0.02 52.88 0.15 52.29 0.2L52.29 0.2Q52.1 0 52.1-0.81 52.1-1.61 52.29-1.61L52.29-1.61Q52.83-1.61 54.05-2.05 55.27-2.49 55.37-2.83L55.37-2.83Q55.71-4.3 55.71-6.54L55.71-6.54 55.71-10.94Q55.71-14.55 54.71-16.09 53.71-17.63 51.51-17.63L51.51-17.63Q50-17.63 49.07-17.07 48.14-16.5 48.14-15.48L48.14-15.48 48.14-7.28Q48.14-4.15 48.48-2.83L48.48-2.83Q48.58-2.49 49.78-2.05 50.97-1.61 51.36-1.61L51.36-1.61Q51.51-1.61 51.54-0.81 51.56 0 51.46 0.2L51.46 0.2Q50.88 0.15 48.48-0.02 46.09-0.2 44.97-0.2L44.97-0.2Q43.8-0.2 41.31-0.02 38.82 0.15 38.28 0.2L38.28 0.2Q38.08 0 38.08-0.81 38.08-1.61 38.28-1.61L38.28-1.61Q38.82-1.61 40.09-2.05 41.35-2.49 41.45-2.83L41.45-2.83Q41.79-4.3 41.79-6.54L41.79-6.54 41.79-13.23Q41.79-15.97 40.92-16.89L40.92-16.89Q40.57-17.29 39.89-17.53 39.21-17.77 38.72-17.87 38.23-17.97 38.23-18.02L38.23-18.02Q38.23-19.73 38.47-19.73L38.47-19.73Q39.06-19.73 40.43-20 41.79-20.26 43.99-20.75 46.19-21.24 47.41-21.48L47.41-21.48Q47.51-21.48 47.63-21.53 47.75-21.58 47.85-21.58L47.85-21.58 47.95-21.63Q48.19-21.63 48.44-21.31 48.68-21 48.68-20.8L48.68-20.8Q48.48-19.43 48.48-19.29L48.48-19.29Q48.48-19.04 48.53-18.99L48.53-18.99Q48.63-18.99 48.87-19.24L48.87-19.24Q51.61-21.78 55.66-21.78ZM95.75-21.83L95.75-21.83Q100.14-21.83 103.32-18.68 106.49-15.53 106.49-11.04L106.49-11.04Q106.49-6.15 103.14-2.88 99.8 0.39 95.01 0.39L95.01 0.39Q92.72 0.39 91.35-0.05 89.99-0.49 88.72-0.49L88.72-0.49Q88.23-0.49 87.2-0.02 86.18 0.44 86.03 0.44 85.88 0.44 85.18-0.02 84.47-0.49 84.47-0.73L84.47-0.73Q84.47-0.88 84.57-1.61 84.66-2.34 84.76-3.59 84.86-4.83 84.86-6.25L84.86-6.25 84.86-25.93Q84.86-27.98 84.57-29.44L84.57-29.44Q84.32-30.22 82.03-30.22L82.03-30.22 81.59-30.22Q81.29-30.22 81.29-31.2L81.29-31.2Q81.29-32.03 81.59-32.03L81.59-32.03Q83.1-32.18 84.64-32.42 86.18-32.67 87.25-32.91 88.33-33.15 89.18-33.4 90.03-33.64 90.52-33.79L90.52-33.79 91.01-33.94 91.11-33.94Q91.3-33.94 91.5-33.64 91.69-33.35 91.74-33.11L91.74-33.11Q91.21-30.91 91.21-28.17L91.21-28.17 91.21-21.04Q91.21-20.9 91.21-20.8 91.21-20.7 91.23-20.53 91.25-20.36 91.33-20.36 91.4-20.36 91.5-20.41L91.5-20.41Q93.26-21.83 95.75-21.83ZM95.21-18.85L95.21-18.85Q93.31-18.85 92.26-17.77 91.21-16.7 91.21-15.53L91.21-15.53 91.21-6.3Q91.21-4.35 92.33-3.3 93.45-2.25 95.16-2.25L95.16-2.25Q97.36-2.25 98.41-4.22 99.46-6.2 99.46-9.42L99.46-9.42Q99.46-18.85 95.21-18.85ZM119.28-19.14L119.28-19.14Q117.38-19.14 116.5-17.31 115.62-15.48 115.62-13.72L115.62-13.72Q115.62-13.43 115.96-13.43L115.96-13.43 122.16-13.43Q122.84-13.43 122.84-14.36L122.84-14.36Q122.84-16.21 121.84-17.68 120.84-19.14 119.28-19.14ZM119.52-21.83L119.52-21.83Q123.92-21.83 126.58-18.77 129.24-15.72 129.24-12.55L129.24-12.55Q129.24-11.43 128.78-11.08 128.31-10.74 126.95-10.74L126.95-10.74 115.91-10.74Q115.62-10.74 115.62-10.4L115.62-10.4Q115.62-7.76 117.11-5.66 118.6-3.56 121.38-3.56L121.38-3.56Q122.99-3.56 124.46-4.03 125.92-4.49 126.51-4.86 127.09-5.22 128.07-5.96L128.07-5.96Q128.51-5.76 128.51-5.03L128.51-5.03Q128.51-4.44 128.31-4.05L128.31-4.05Q127.82-2.88 125.38-1.27 122.94 0.34 119.91 0.34L119.91 0.34Q115.42 0.34 112.18-2.93 108.93-6.2 108.93-10.79L108.93-10.79Q108.93-15.48 111.86-18.65 114.79-21.83 119.52-21.83ZM134.95-6.79L134.95-18.07 131.78-18.07Q131.39-18.07 131.39-19.58L131.39-19.58Q131.39-19.97 131.48-20.12L131.48-20.12Q134.22-21.48 135.88-22.75L135.88-22.75Q136.61-23.29 137.59-24.15 138.56-25 139.27-25.61 139.98-26.22 140.03-26.27L140.03-26.27Q140.42-26.27 140.86-26.1 141.3-25.93 141.3-25.73L141.3-25.73 141.3-20.95 146.57-20.95Q146.96-20.95 146.96-20.46L146.96-20.46Q146.96-19.04 146.47-18.07L146.47-18.07 141.3-18.07 141.3-6.49Q141.3-2.78 143.94-2.78L143.94-2.78Q144.67-2.78 145.28-2.95 145.89-3.13 146.23-3.32 146.57-3.52 146.62-3.52L146.62-3.52Q146.82-3.52 147.04-3.03 147.26-2.54 147.26-2.29L147.26-2.29Q147.26-1.71 145.25-0.68 143.25 0.34 141.49 0.34L141.49 0.34Q138.81 0.34 136.88-1.34 134.95-3.03 134.95-6.79L134.95-6.79ZM160.53-19.14L160.53-19.14Q159.12-19.14 158.19-18.02 157.26-16.89 156.97-15.45 156.68-14.01 156.68-12.26L156.68-12.26Q156.68-2.34 161.71-2.34L161.71-2.34Q163.76-2.34 164.71-4.35 165.66-6.35 165.66-9.03L165.66-9.03Q165.66-19.14 160.53-19.14ZM153.09-18.6Q156.43-21.83 161.22-21.83 166-21.83 169.35-18.6 172.69-15.38 172.69-10.74 172.69-6.1 169.37-2.88 166.05 0.34 161.22 0.34L161.22 0.34Q156.43 0.34 153.09-2.88 149.74-6.1 149.74-10.74 149.74-15.38 153.09-18.6Z" opacity="1" transform="matrix(1,0,0,1,0,0)" fill="#ffffff" class="wordmark-text-0" data-fill-palette-color="primary" id="text-0"></path></svg></g></svg></g></svg></g></svg></g></svg></g></svg></g></svg></g><g><path d="M245.816 0c68.262 0 123.6 55.338 123.6 123.6 0 68.262-55.338 123.6-123.6 123.6-57.818 0-106.364-39.699-119.866-93.326h2.28c13.45 52.394 60.996 91.118 117.586 91.117 67.043 0 121.391-54.349 121.391-121.391 0-67.043-54.349-121.391-121.391-121.391-56.59 0-104.136 38.723-117.586 91.117l-2.28 0c13.502-53.627 62.048-93.326 119.866-93.326z" fill="#ffffff" stroke="transparent" data-fill-palette-color="tertiary"></path></g></svg></g><defs></defs></svg><rect width="395.52" height="247.2" fill="none" stroke="none" visibility="hidden"></rect></g></svg></g></svg>